<svg xmlns="http://www.w3.org/2000/svg" width="360" height="56" viewBox="0 0 360 56" fill="none">
    <g clip-path="url(#clip0_297_8600)">
        <path fill-rule="evenodd" clip-rule="evenodd" d="M209.115 54.5224C209.115 54.5224 204.368 55.1376 200.43 55.1376C196.493 55.1376 191.455 54.6454 191.455 54.6454V39.1377H209.115V54.5224ZM209.115 1.53773C209.115 1.53773 204.946 0.983887 200.199 0.983887C195.45 0.983887 191.455 1.4762 191.455 1.4762V17.115H209.115V1.53773Z" fill="#E4003C"/>
        <path fill-rule="evenodd" clip-rule="evenodd" d="M164.446 26.4L186.102 54.6463H163.925L149.45 34.6461H142.964V54.6463H125.014V1.47692H142.964V20.6769H149.681L164.099 1.47692H184.829L164.446 26.4ZM0 1.47692V54.6463H18.1239V16.4923H38.4481V54.6463H56.5719V1.47692H0ZM65.6051 15.5692C65.6051 15.5692 78.7489 14.6462 85.5238 14.6462C92.2986 14.6462 100.231 15.5692 100.231 15.5692C100.231 15.5692 100.579 17.7846 100.868 21.2308H77.591V34.7692H100.81C100.579 37.7231 100.116 40.4308 100.116 40.4308C100.116 40.4308 96.2938 41.354 86.6242 41.354C76.9541 41.354 65.6051 40.4308 65.6051 40.4308L63.0571 54.5846C63.0571 54.5846 79.2703 56 90.3876 56C101.505 56 113.665 54.5846 113.665 54.5846C113.665 54.5846 117.66 42.5848 117.66 27.3846C117.66 12.1846 113.665 1.41538 113.665 1.41538C113.665 1.41538 100.984 0 90.5034 0C80.0231 0 63.0571 1.41538 63.0571 1.41538L65.6051 15.5692Z" fill="#252064"/>
        <path d="M247.456 55.8794C260.321 55.8794 268.847 49.4244 268.847 40.1002C268.847 32.4498 262.181 28.0667 256.679 27.5088C262.801 26.4728 267.994 21.771 267.994 15.555C267.994 6.78884 260.631 0.971313 247.456 0.971313C237.923 0.971313 231.103 4.55748 226.763 9.57808L233.196 18.1848C236.838 14.8378 241.333 13.0845 246.061 13.0845C251.021 13.0845 254.741 14.5987 254.741 17.9458C254.741 20.735 251.719 22.0898 246.371 22.0898C244.433 22.0898 240.404 22.0898 239.396 22.0101V34.203C240.171 34.1233 244.123 34.1233 246.371 34.1233C253.424 34.1233 255.594 35.5578 255.594 38.5861C255.594 41.5349 252.649 43.766 246.913 43.766C242.418 43.766 236.528 41.933 232.808 38.1876L226.065 47.5115C230.096 52.293 237.536 55.8794 247.456 55.8794Z" fill="#252069"/>
        <path d="M289.429 54.923V37.072H301.984C313.609 37.072 319.964 29.0231 319.964 19.46C319.964 9.81726 313.609 1.76831 301.984 1.76831H276.098V54.923H289.429ZM300.201 25.1182H289.429V13.7222H300.201C303.766 13.7222 306.401 15.7942 306.401 19.46C306.401 23.0462 303.766 25.1182 300.201 25.1182Z" fill="#252069"/>
        <path d="M360 54.923V42.9691H339.23V1.76831H325.899V54.923H360Z" fill="#252069"/>
    </g>
    <defs>
        <clipPath id="clip0_297_8600">
            <rect width="360" height="56" fill="white"/>
        </clipPath>
    </defs>
</svg>